<?xml version="1.0" encoding="UTF-8" standalone="no"?>
<svg width="90px" height="90px" viewBox="0 0 90 90" version="1.1" xmlns="http://www.w3.org/2000/svg" xmlns:xlink="http://www.w3.org/1999/xlink">
    <!-- Generator: Sketch 3.8.3 (29802) - http://www.bohemiancoding.com/sketch -->
    <title>circle</title>
    <desc>Created with Sketch.</desc>
    <defs></defs>
    <g id="Laptop" stroke="none" stroke-width="1" fill="none" fill-rule="evenodd">
        <g id="Home" transform="translate(-140.000000, -104.000000)" fill="#67A6F1">
            <g id="1" transform="translate(140.000000, 59.000000)">
                <path d="M45,126 L45,126 C64.882251,126 81,109.882251 81,90 C81,70.117749 64.882251,54 45,54 C25.117749,54 9,70.117749 9,90 C9,109.882251 25.117749,126 45,126 L45,126 Z M45,135 L45,135 C20.1471863,135 0,114.852814 0,90 C0,65.1471863 20.1471863,45 45,45 C69.8528137,45 90,65.1471863 90,90 C90,114.852814 69.8528137,135 45,135 L45,135 Z" id="circle"></path>
            </g>
        </g>
    </g>
</svg>