<?xml version="1.0" encoding="UTF-8" standalone="no"?>
<svg width="26px" height="26px" viewBox="0 0 26 26" version="1.1" xmlns="http://www.w3.org/2000/svg" xmlns:xlink="http://www.w3.org/1999/xlink">
    <!-- Generator: Sketch 3.8.3 (29802) - http://www.bohemiancoding.com/sketch -->
    <title>Oval 1 Copy</title>
    <desc>Created with Sketch.</desc>
    <defs></defs>
    <g id="Laptop" stroke="none" stroke-width="1" fill="none" fill-rule="evenodd">
        <g id="Home" transform="translate(-708.000000, -754.000000)" fill="#67A6F1">
            <path d="M720.875266,774.34 L720.875266,774.34 C725.004236,774.34 728.350532,770.995072 728.350532,766.87 C728.350532,762.744928 725.004236,759.4 720.875266,759.4 C716.746296,759.4 713.4,762.744928 713.4,766.87 C713.4,770.995072 716.746296,774.34 720.875266,774.34 L720.875266,774.34 Z M720.875266,779.74 L720.875266,779.74 C713.764453,779.74 708,773.977905 708,766.87 C708,759.762095 713.764453,754 720.875266,754 C727.986079,754 733.750532,759.762095 733.750532,766.87 C733.750532,773.977905 727.986079,779.74 720.875266,779.74 L720.875266,779.74 Z" id="Oval-1-Copy"></path>
        </g>
    </g>
</svg>